<svg fill="none" height="40" viewBox="0 0 40 40" width="40" xmlns="http://www.w3.org/2000/svg">
  <clipPath id="a">
    <path d="m0 0h129.231v40h-129.231z" />
  </clipPath>
  <g clipPath="url(#a)" fill="#063480">
    <path
      d="m28.6045 9.72179c-.542-.54176-1.2772-.84612-2.0438-.84612-.7665 0-1.5017.30436-2.0437.84612l-7.0738 7.05981-3.1127-3.1111 7.043-7.02906c.2695-.26937.4833-.58917.6291-.94113.1459-.35196.221-.72919.221-1.11015s-.0751-.75819-.221-1.11015c-.1458-.35195-.3596-.67175-.6291-.94113-.2696-.26938-.5895-.48306-.9417-.62885-.3521-.14579-.7295-.22082-1.1107-.22082-.3811 0-.7586.07503-1.1107.22082s-.6721.35947-.9416.62885l-16.418709 16.41022c-.269517.2694-.483309.5892-.629171.9412-.145861.3519-.22093526.7292-.22093526 1.1101 0 .7694.30579326 1.5073.85010626 2.0513.544309.544 1.282559.8497 2.052339.8497.76977 0 1.50802-.3057 2.05233-.8497l5.30534-5.2991 3.1127 3.1111-12.519289 12.5094c-.268394.2694-.481074.5889-.625898.9405-.144824.3515-.21895571.7281-.21816164 1.1083.00160374.7677.30829764 1.5034.85261164 2.0452.544317.5418 1.281657.8452 2.049837.8436.38036-.0008.75684-.0764 1.10794-.2227.3511-.1462.66995-.3601.93835-.6295l23.66001-23.6478c.5405-.5442.8426-1.2806.84-2.0473-.0025-.7667-.3096-1.5011-.8537-2.04161z"
    />
    <path
      d="m35.3123 30.9764c-.2799-.2595-.6083-.4612-.9663-.5935-.3581-.1322-.7388-.1925-1.1202-.1772-.3814.0152-.7561.1057-1.1025.2661-.3463.1604-.6575.3877-.9157.6687l-2.1345 2.3146c-.2576.2788-.4577.6056-.589.9617-.1312.3561-.191.7346-.1759 1.1138s.1047.7517.2639 1.0963c.1591.3446.3846.6544.6635.9119.279.2575.6059.4576.9622.5887.3563.1312.735.191 1.1144.1759.7663-.0304 1.489-.3639 2.0093-.927l2.1413-2.3145c.5217-.5619.7989-1.3078.7707-2.0739-.0283-.766-.3596-1.4895-.9212-2.0116z"
    />
    <path
      d="m35.0319 17.6946c-.2689-.2704-.5887-.485-.9409-.6315-.3523-.1464-.73-.2218-1.1114-.2218-.3815 0-.7592.0754-1.1114.2218-.3523.1465-.672.3611-.941.6315l-15.6696 15.6786c-.2684.2694-.481.589-.6259.9405-.1448.3515-.2189.7281-.2181 1.1083.0016.7678.3083 1.5035.8526 2.0452.5443.5418 1.2816.8453 2.0498.8437s1.5043-.3082 2.0463-.8522l15.6867-15.6752c.54-.5446.8415-1.2813.8383-2.048-.0032-.7668-.3109-1.5008-.8554-2.0409z"
    />
  </g>
</svg>
