<svg xmlns="http://www.w3.org/2000/svg" xmlns:xlink="http://www.w3.org/1999/xlink" width="1200" height="1352.321" viewBox="0 0 1200 1352.321">
  <defs>
    <linearGradient id="linear-gradient" x1="0.5" x2="0.548" y2="1.811" gradientUnits="objectBoundingBox">
      <stop offset="0" stop-color="#009b90"/>
      <stop offset="1" stop-color="#ecf955"/>
    </linearGradient>
    <clipPath id="clip-path">
      <path id="Path_207" data-name="Path 207" d="M1357.151,1682.444a166.578,166.578,0,0,1-29.961,124.417,585.4,585.4,0,0,0,167.689,90.794,144.118,144.118,0,0,1,263.764,28.237,584.109,584.109,0,0,0,160.641-43.2,122.05,122.05,0,0,1,176.387-117.11,585.734,585.734,0,0,0,166.438-297.89,472.767,472.767,0,0,1-117.022,125.161c-175.2,129.895-410.5,120.921-574.28-7.342a1673.433,1673.433,0,0,1-213.655,96.932" transform="translate(-1327.19 -1467.693)" fill="none" clip-rule="evenodd"/>
    </clipPath>
    <linearGradient id="linear-gradient-2" x1="-3.908" y1="3.745" x2="1.304" y2="-0.587" gradientUnits="objectBoundingBox">
      <stop offset="0" stop-color="#231916"/>
      <stop offset="0.536" stop-color="#757575"/>
      <stop offset="1" stop-color="#2d2d2d"/>
    </linearGradient>
    <clipPath id="clip-path-2">
      <path id="Path_208" data-name="Path 208" d="M2091.149,2162.252a384.652,384.652,0,0,1-306.683-47.027c199.353-122.879,402.473-317.185,438.848-608.294-92.243,262.847-302.94,424.469-526.283,532.213l-.011-.011v.039q-32.913,15.877-66.092,30.226h-.014c-65.913,28.611-132.011,53-195.642,74.337a166.511,166.511,0,0,0-152.4-22.258,585.589,585.589,0,0,1-38.145-186.871,144.122,144.122,0,0,0,49.65-260.571,584.578,584.578,0,0,1,88.017-141.16,122.045,122.045,0,0,0,163.292-134.722,585.713,585.713,0,0,1,333.391-72.7,472.99,472.99,0,0,0-153.751,75.594c-183.206,135.829-240.222,378.663-148.739,577.983q32.268-13.722,63.99-28.673l.011.005a387.787,387.787,0,0,1-21.859-60.867c-55.149-205.776,74.046-395.607,272.746-472.433,206.591-79.865,325.953-273.906,325.953-273.906,299.865,274.236,346.285,892.466-126.28,1019.093" transform="translate(-1244.729 -1143.159)" fill="none" clip-rule="evenodd"/>
    </clipPath>
    <linearGradient id="linear-gradient-3" x1="0" y1="-0.485" x2="1.133" y2="3.041" xlink:href="#linear-gradient"/>
    <clipPath id="clip-path-3">
      <path id="Path_209" data-name="Path 209" d="M1407.47,1627.422c48.434-93.182,136.014-168.521,244.212-210.357,206.591-79.865,325.952-273.906,325.952-273.906.147,254.6-124.076,451.12-286.657,585.036C1518,1870.685,1306.735,1849.428,1407.47,1627.422" transform="translate(-1381.357 -1143.159)" fill="url(#linear-gradient)" clip-rule="evenodd"/>
    </clipPath>
    <linearGradient id="linear-gradient-5" x1="-0.199" y1="0.354" x2="1.18" y2="1" xlink:href="#linear-gradient"/>
    <linearGradient id="linear-gradient-6" x1="0.5" y1="0" x2="0.5" y2="1" xlink:href="#linear-gradient-2"/>
    <clipPath id="clip-path-4">
      <path id="Path_214" data-name="Path 214" d="M1476.823,1876.915a557.329,557.329,0,0,1-6.6-592.577,120.306,120.306,0,0,1-87.833.755,584.581,584.581,0,0,0-88.017,141.161c105.346,70.651,74.106,233.711-49.65,260.571a585.581,585.581,0,0,0,38.145,186.87,166.512,166.512,0,0,1,152.4,22.258q21.155-9.492,41.552-19.037" transform="translate(-1244.729 -1284.338)" fill="#1fa889" clip-rule="evenodd"/>
    </clipPath>
    <clipPath id="clip-path-5">
      <path id="Path_215" data-name="Path 215" d="M1418.012,1536.931c-21.523,8.967-41.93,16.943-60.861,24a166.578,166.578,0,0,1-29.961,124.417,585.4,585.4,0,0,0,167.689,90.794,144.117,144.117,0,0,1,263.764,28.237,584.13,584.13,0,0,0,160.641-43.2,122.1,122.1,0,0,1,35.07-93.863,557.808,557.808,0,0,1-536.342-130.382" transform="translate(-1327.19 -1536.931)" fill="none" clip-rule="evenodd"/>
    </clipPath>
    <linearGradient id="linear-gradient-7" x1="-5.826" y1="5.703" x2="-5.821" y2="5.703" xlink:href="#linear-gradient-2"/>
  </defs>
  <g id="Group_181" data-name="Group 181" transform="translate(-1197.798 -370)">
    <g id="Group_148" data-name="Group 148" transform="translate(1197.798 370)">
      <g id="Group_139" data-name="Group 139" transform="translate(227.188 894.121)">
        <g id="Group_138" data-name="Group 138" transform="translate(0)" clip-path="url(#clip-path)">
          <path id="Path_216" data-name="Path 216" d="M0,0H934.919V458.2H0Z" transform="translate(0.001 0.001)" fill="url(#linear-gradient-2)"/>
        </g>
      </g>
      <g id="Group_141" data-name="Group 141">
        <g id="Group_140" data-name="Group 140" clip-path="url(#clip-path-2)">
          <rect id="Rectangle_12" data-name="Rectangle 12" width="1318.982" height="1048.184" transform="translate(0.001 0)" fill="url(#linear-gradient-3)"/>
        </g>
      </g>
      <g id="Group_143" data-name="Group 143" transform="translate(376.423)">
        <g id="Group_142" data-name="Group 142" clip-path="url(#clip-path-3)">
          <rect id="Rectangle_13" data-name="Rectangle 13" width="671.045" height="727.525" transform="translate(-74.623 0)" fill="url(#linear-gradient)"/>
        </g>
      </g>
      <path id="Path_210" data-name="Path 210" d="M2089.964,1200.864s87.658,453.879-776.074,841.593c86.8-29.1,176.618-63.505,261.758-104.592,223.344-107.744,434.04-269.366,526.284-532.213,0,0,9.946-122.772-11.968-204.788" transform="translate(-1123.347 -1041.882)" fill="#1fa889" fill-rule="evenodd"/>
      <path id="Path_211" data-name="Path 211" d="M2095.5,1305.17c30.52,466.423-450.952,636.027-654.87,525.709a384.649,384.649,0,0,0,306.683,47.027c281.409-75.407,378.776-325.131,348.187-572.737" transform="translate(-900.897 -858.815)" fill-rule="evenodd" fill="url(#linear-gradient-5)"/>
      <path id="Path_212" data-name="Path 212" d="M1422.627,1862.9c-121-263.635,22.909-574.9,302.49-653.577-282.747,47.47-478.014,336.259-355.277,674.3Z" transform="translate(-1090.768 -1027.03)" fill="#1fa889" fill-rule="evenodd"/>
      <path id="Path_213" data-name="Path 213" d="M1398.058,1610.727c132.288,125.407,543.637,231.65,739.671-143.034a472.763,472.763,0,0,1-117.023,125.161c-175.2,129.895-410.5,120.921-574.28-7.342q-24.482,13.311-48.368,25.215" transform="translate(-975.623 -573.572)" fill-rule="evenodd" fill="url(#linear-gradient-6)"/>
      <g id="Group_145" data-name="Group 145" transform="translate(0 388.961)">
        <g id="Group_144" data-name="Group 144" clip-path="url(#clip-path-4)">
          <rect id="Rectangle_14" data-name="Rectangle 14" width="596.588" height="596.594" transform="translate(-305.806 305.803) rotate(-45)" fill="#1fa889"/>
        </g>
      </g>
      <g id="Group_147" data-name="Group 147" transform="translate(227.188 1084.876)">
        <g id="Group_146" data-name="Group 146" transform="translate(0)" clip-path="url(#clip-path-5)">
          <path id="Path_217" data-name="Path 217" d="M0,0H627.163V267.446H0Z" transform="translate(0.001 -0.001)" fill="url(#linear-gradient-7)"/>
        </g>
      </g>
    </g>
  </g>
</svg>
